<svg width="20" height="622" viewBox="0 0 20 622" fill="none" xmlns="http://www.w3.org/2000/svg">
<path fill-rule="evenodd" clip-rule="evenodd" d="M11 575.614C16.0533 576.768 20 586.574 20 598.5C20 611.203 15.5228 621.5 10 621.5C4.47715 621.5 0 611.203 0 598.5C0 586.574 3.94669 576.768 9.00002 575.614L9 5.96046e-08L11 0L11 575.614ZM18 598.5C18 604.644 16.9134 610.11 15.2369 613.966C14.3973 615.897 13.4491 617.334 12.4979 618.259C11.5559 619.175 10.7146 619.5 10 619.5C9.2854 619.5 8.44411 619.175 7.50214 618.259C6.55085 617.334 5.60267 615.897 4.76307 613.966C3.08662 610.11 2 604.644 2 598.5C2 592.356 3.08662 586.89 4.76307 583.034C5.60267 581.103 6.55085 579.666 7.50214 578.741C8.44411 577.825 9.2854 577.5 10 577.5C10.7146 577.5 11.5559 577.825 12.4979 578.741C13.4491 579.666 14.3973 581.103 15.2369 583.034C16.9134 586.89 18 592.356 18 598.5Z" fill="black"/>
</svg>
