
<svg width="20" height="405" viewBox="0 0 20 405" fill="none" xmlns="http://www.w3.org/2000/svg">
<path fill-rule="evenodd" clip-rule="evenodd" d="M11 358.614C16.0533 359.768 20 369.574 20 381.5C20 394.203 15.5228 404.5 10 404.5C4.47715 404.5 0 394.203 0 381.5C0 369.574 3.94668 359.768 9 358.614V0H11V358.614ZM18 381.5C18 387.644 16.9134 393.11 15.2369 396.966C14.3973 398.897 13.4491 400.334 12.4979 401.259C11.5559 402.175 10.7146 402.5 10 402.5C9.2854 402.5 8.44411 402.175 7.50214 401.259C6.55085 400.334 5.60267 398.897 4.76307 396.966C3.08662 393.11 2 387.644 2 381.5C2 375.356 3.08662 369.89 4.76307 366.034C5.60267 364.103 6.55085 362.666 7.50214 361.741C8.44411 360.825 9.2854 360.5 10 360.5C10.7146 360.5 11.5559 360.825 12.4979 361.741C13.4491 362.666 14.3973 364.103 15.2369 366.034C16.9134 369.89 18 375.356 18 381.5Z" fill="black"/>
</svg>
